<svg viewBox="0 0 850 968" xmlns="http://www.w3.org/2000/svg" font-family="system-ui, -apple-system, sans-serif">
<rect x="0" y="0" width="850" height="968" opacity="1" fill="#0D1117" stroke="none"/>
<text x="425" y="22" dy="0.5ex" text-anchor="middle" font-family="sans-serif" font-size="12.096774193548388" opacity="1" fill="#E6EDF3" font-weight="bold">
14-file web corpus: Pipeline @100 MB/s by content shape (lower is better)
</text>
<text x="425" y="40" dy="0.5ex" text-anchor="middle" font-family="sans-serif" font-size="8.870967741935484" opacity="1" fill="#7D8590">
Linux VM on a 2018 Mac Mini, Intel Core i7-8700B @ 3.20GHz, performance governor, turbo off
</text>
<text x="22" y="461" dy="0.5ex" text-anchor="middle" font-family="sans-serif" font-size="9.67741935483871" opacity="1" fill="#E6EDF3" font-weight="bold" transform="rotate(270, 22, 461)">
seconds / GB
</text>
<text x="450" y="74" dy="0.5ex" text-anchor="middle" font-family="sans-serif" font-size="10.483870967741936" opacity="1" fill="#E6EDF3" font-weight="bold">
JavaScript
</text>
<polyline fill="none" opacity="1" stroke="#21262D" stroke-width="1" points="70,243 830,243 "/>
<text x="62" y="243" dy="0.5ex" text-anchor="end" font-family="sans-serif" font-size="8.870967741935484" opacity="1" fill="#7D8590">
10.0
</text>
<polyline fill="none" opacity="1" stroke="#21262D" stroke-width="1" points="70,203 830,203 "/>
<text x="62" y="203" dy="0.5ex" text-anchor="end" font-family="sans-serif" font-size="8.870967741935484" opacity="1" fill="#7D8590">
20.0
</text>
<polyline fill="none" opacity="1" stroke="#21262D" stroke-width="1" points="70,162 830,162 "/>
<text x="62" y="162" dy="0.5ex" text-anchor="end" font-family="sans-serif" font-size="8.870967741935484" opacity="1" fill="#7D8590">
30.0
</text>
<polyline fill="none" opacity="1" stroke="#21262D" stroke-width="1" points="70,122 830,122 "/>
<text x="62" y="122" dy="0.5ex" text-anchor="end" font-family="sans-serif" font-size="8.870967741935484" opacity="1" fill="#7D8590">
40.0
</text>
<polyline fill="none" opacity="1" stroke="#30363D" stroke-width="2" points="70,284 830,284 "/>
<rect x="95" y="270" width="44" height="14" opacity="1" fill="#2563EB" stroke="none"/>
<rect x="95" y="258" width="44" height="12" opacity="1" fill="#1D4ED8" stroke="none"/>
<rect x="95" y="246" width="44" height="12" opacity="1" fill="#2563EB" stroke="none"/>
<rect x="142" y="259" width="44" height="25" opacity="1" fill="#F87171" stroke="none"/>
<rect x="142" y="248" width="44" height="11" opacity="1" fill="#C45050" stroke="none"/>
<rect x="142" y="229" width="44" height="19" opacity="1" fill="#F87171" stroke="none"/>
<rect x="188" y="228" width="44" height="56" opacity="1" fill="#4ADE80" stroke="none"/>
<rect x="188" y="211" width="44" height="17" opacity="1" fill="#3AAF60" stroke="none"/>
<rect x="188" y="171" width="44" height="40" opacity="1" fill="#4ADE80" stroke="none"/>
<text x="197" y="302" dy="0.5ex" text-anchor="middle" font-family="sans-serif" font-size="9.67741935483871" opacity="1" fill="#E6EDF3" font-weight="bold">
q0
</text>
<rect x="349" y="240" width="44" height="44" opacity="1" fill="#2563EB" stroke="none"/>
<rect x="349" y="229" width="44" height="11" opacity="1" fill="#1D4ED8" stroke="none"/>
<rect x="349" y="219" width="44" height="10" opacity="1" fill="#2563EB" stroke="none"/>
<rect x="395" y="209" width="44" height="75" opacity="1" fill="#F87171" stroke="none"/>
<rect x="395" y="198" width="44" height="11" opacity="1" fill="#C45050" stroke="none"/>
<rect x="395" y="182" width="44" height="16" opacity="1" fill="#F87171" stroke="none"/>
<rect x="441" y="216" width="44" height="68" opacity="1" fill="#4ADE80" stroke="none"/>
<rect x="441" y="206" width="44" height="10" opacity="1" fill="#3AAF60" stroke="none"/>
<rect x="441" y="186" width="44" height="20" opacity="1" fill="#4ADE80" stroke="none"/>
<text x="450" y="302" dy="0.5ex" text-anchor="middle" font-family="sans-serif" font-size="9.67741935483871" opacity="1" fill="#E6EDF3" font-weight="bold">
q3
</text>
<rect x="602" y="177" width="44" height="107" opacity="1" fill="#2563EB" stroke="none"/>
<rect x="602" y="168" width="44" height="9" opacity="1" fill="#1D4ED8" stroke="none"/>
<rect x="602" y="158" width="44" height="10" opacity="1" fill="#2563EB" stroke="none"/>
<rect x="648" y="136" width="44" height="148" opacity="1" fill="#F87171" stroke="none"/>
<rect x="648" y="127" width="44" height="9" opacity="1" fill="#C45050" stroke="none"/>
<rect x="648" y="110" width="44" height="17" opacity="1" fill="#F87171" stroke="none"/>
<rect x="694" y="142" width="44" height="142" opacity="1" fill="#4ADE80" stroke="none"/>
<rect x="694" y="133" width="44" height="9" opacity="1" fill="#3AAF60" stroke="none"/>
<rect x="694" y="116" width="44" height="17" opacity="1" fill="#4ADE80" stroke="none"/>
<text x="703" y="302" dy="0.5ex" text-anchor="middle" font-family="sans-serif" font-size="9.67741935483871" opacity="1" fill="#E6EDF3" font-weight="bold">
q5
</text>
<text x="450" y="351" dy="0.5ex" text-anchor="middle" font-family="sans-serif" font-size="10.483870967741936" opacity="1" fill="#E6EDF3" font-weight="bold">
CSS
</text>
<polyline fill="none" opacity="1" stroke="#21262D" stroke-width="1" points="70,498 830,498 "/>
<text x="62" y="498" dy="0.5ex" text-anchor="end" font-family="sans-serif" font-size="8.870967741935484" opacity="1" fill="#7D8590">
10.0
</text>
<polyline fill="none" opacity="1" stroke="#21262D" stroke-width="1" points="70,435 830,435 "/>
<text x="62" y="435" dy="0.5ex" text-anchor="end" font-family="sans-serif" font-size="8.870967741935484" opacity="1" fill="#7D8590">
20.0
</text>
<polyline fill="none" opacity="1" stroke="#21262D" stroke-width="1" points="70,372 830,372 "/>
<text x="62" y="372" dy="0.5ex" text-anchor="end" font-family="sans-serif" font-size="8.870967741935484" opacity="1" fill="#7D8590">
30.0
</text>
<polyline fill="none" opacity="1" stroke="#30363D" stroke-width="2" points="70,561 830,561 "/>
<rect x="95" y="547" width="44" height="14" opacity="1" fill="#2563EB" stroke="none"/>
<rect x="95" y="536" width="44" height="11" opacity="1" fill="#1D4ED8" stroke="none"/>
<rect x="95" y="524" width="44" height="12" opacity="1" fill="#2563EB" stroke="none"/>
<rect x="142" y="540" width="44" height="21" opacity="1" fill="#F87171" stroke="none"/>
<rect x="142" y="529" width="44" height="11" opacity="1" fill="#C45050" stroke="none"/>
<rect x="142" y="510" width="44" height="19" opacity="1" fill="#F87171" stroke="none"/>
<rect x="188" y="495" width="44" height="66" opacity="1" fill="#4ADE80" stroke="none"/>
<rect x="188" y="480" width="44" height="15" opacity="1" fill="#3AAF60" stroke="none"/>
<rect x="188" y="433" width="44" height="47" opacity="1" fill="#4ADE80" stroke="none"/>
<text x="197" y="579" dy="0.5ex" text-anchor="middle" font-family="sans-serif" font-size="9.67741935483871" opacity="1" fill="#E6EDF3" font-weight="bold">
q0
</text>
<rect x="349" y="516" width="44" height="45" opacity="1" fill="#2563EB" stroke="none"/>
<rect x="349" y="507" width="44" height="9" opacity="1" fill="#1D4ED8" stroke="none"/>
<rect x="349" y="496" width="44" height="11" opacity="1" fill="#2563EB" stroke="none"/>
<rect x="395" y="486" width="44" height="75" opacity="1" fill="#F87171" stroke="none"/>
<rect x="395" y="477" width="44" height="9" opacity="1" fill="#C45050" stroke="none"/>
<rect x="395" y="461" width="44" height="16" opacity="1" fill="#F87171" stroke="none"/>
<rect x="441" y="478" width="44" height="83" opacity="1" fill="#4ADE80" stroke="none"/>
<rect x="441" y="469" width="44" height="9" opacity="1" fill="#3AAF60" stroke="none"/>
<rect x="441" y="447" width="44" height="22" opacity="1" fill="#4ADE80" stroke="none"/>
<text x="450" y="579" dy="0.5ex" text-anchor="middle" font-family="sans-serif" font-size="9.67741935483871" opacity="1" fill="#E6EDF3" font-weight="bold">
q3
</text>
<rect x="602" y="460" width="44" height="101" opacity="1" fill="#2563EB" stroke="none"/>
<rect x="602" y="453" width="44" height="7" opacity="1" fill="#1D4ED8" stroke="none"/>
<rect x="602" y="443" width="44" height="10" opacity="1" fill="#2563EB" stroke="none"/>
<rect x="648" y="429" width="44" height="132" opacity="1" fill="#F87171" stroke="none"/>
<rect x="648" y="421" width="44" height="8" opacity="1" fill="#C45050" stroke="none"/>
<rect x="648" y="407" width="44" height="14" opacity="1" fill="#F87171" stroke="none"/>
<rect x="694" y="412" width="44" height="149" opacity="1" fill="#4ADE80" stroke="none"/>
<rect x="694" y="405" width="44" height="7" opacity="1" fill="#3AAF60" stroke="none"/>
<rect x="694" y="387" width="44" height="18" opacity="1" fill="#4ADE80" stroke="none"/>
<text x="703" y="579" dy="0.5ex" text-anchor="middle" font-family="sans-serif" font-size="9.67741935483871" opacity="1" fill="#E6EDF3" font-weight="bold">
q5
</text>
<text x="450" y="628" dy="0.5ex" text-anchor="middle" font-family="sans-serif" font-size="10.483870967741936" opacity="1" fill="#E6EDF3" font-weight="bold">
Data/docs
</text>
<polyline fill="none" opacity="1" stroke="#21262D" stroke-width="1" points="70,787 830,787 "/>
<text x="62" y="787" dy="0.5ex" text-anchor="end" font-family="sans-serif" font-size="8.870967741935484" opacity="1" fill="#7D8590">
10.0
</text>
<polyline fill="none" opacity="1" stroke="#21262D" stroke-width="1" points="70,736 830,736 "/>
<text x="62" y="736" dy="0.5ex" text-anchor="end" font-family="sans-serif" font-size="8.870967741935484" opacity="1" fill="#7D8590">
20.0
</text>
<polyline fill="none" opacity="1" stroke="#21262D" stroke-width="1" points="70,685 830,685 "/>
<text x="62" y="685" dy="0.5ex" text-anchor="end" font-family="sans-serif" font-size="8.870967741935484" opacity="1" fill="#7D8590">
30.0
</text>
<polyline fill="none" opacity="1" stroke="#30363D" stroke-width="2" points="70,838 830,838 "/>
<rect x="95" y="825" width="44" height="13" opacity="1" fill="#2563EB" stroke="none"/>
<rect x="95" y="815" width="44" height="10" opacity="1" fill="#1D4ED8" stroke="none"/>
<rect x="95" y="804" width="44" height="11" opacity="1" fill="#2563EB" stroke="none"/>
<rect x="142" y="817" width="44" height="21" opacity="1" fill="#F87171" stroke="none"/>
<rect x="142" y="807" width="44" height="10" opacity="1" fill="#C45050" stroke="none"/>
<rect x="142" y="790" width="44" height="17" opacity="1" fill="#F87171" stroke="none"/>
<rect x="188" y="778" width="44" height="60" opacity="1" fill="#4ADE80" stroke="none"/>
<rect x="188" y="763" width="44" height="15" opacity="1" fill="#3AAF60" stroke="none"/>
<rect x="188" y="725" width="44" height="38" opacity="1" fill="#4ADE80" stroke="none"/>
<text x="197" y="856" dy="0.5ex" text-anchor="middle" font-family="sans-serif" font-size="9.67741935483871" opacity="1" fill="#E6EDF3" font-weight="bold">
q0
</text>
<rect x="349" y="799" width="44" height="39" opacity="1" fill="#2563EB" stroke="none"/>
<rect x="349" y="791" width="44" height="8" opacity="1" fill="#1D4ED8" stroke="none"/>
<rect x="349" y="782" width="44" height="9" opacity="1" fill="#2563EB" stroke="none"/>
<rect x="395" y="778" width="44" height="60" opacity="1" fill="#F87171" stroke="none"/>
<rect x="395" y="770" width="44" height="8" opacity="1" fill="#C45050" stroke="none"/>
<rect x="395" y="756" width="44" height="14" opacity="1" fill="#F87171" stroke="none"/>
<rect x="441" y="784" width="44" height="54" opacity="1" fill="#4ADE80" stroke="none"/>
<rect x="441" y="776" width="44" height="8" opacity="1" fill="#3AAF60" stroke="none"/>
<rect x="441" y="761" width="44" height="15" opacity="1" fill="#4ADE80" stroke="none"/>
<text x="450" y="856" dy="0.5ex" text-anchor="middle" font-family="sans-serif" font-size="9.67741935483871" opacity="1" fill="#E6EDF3" font-weight="bold">
q3
</text>
<rect x="602" y="734" width="44" height="104" opacity="1" fill="#2563EB" stroke="none"/>
<rect x="602" y="728" width="44" height="6" opacity="1" fill="#1D4ED8" stroke="none"/>
<rect x="602" y="720" width="44" height="8" opacity="1" fill="#2563EB" stroke="none"/>
<rect x="648" y="717" width="44" height="121" opacity="1" fill="#F87171" stroke="none"/>
<rect x="648" y="710" width="44" height="7" opacity="1" fill="#C45050" stroke="none"/>
<rect x="648" y="699" width="44" height="11" opacity="1" fill="#F87171" stroke="none"/>
<rect x="694" y="684" width="44" height="154" opacity="1" fill="#4ADE80" stroke="none"/>
<rect x="694" y="677" width="44" height="7" opacity="1" fill="#3AAF60" stroke="none"/>
<rect x="694" y="664" width="44" height="13" opacity="1" fill="#4ADE80" stroke="none"/>
<text x="703" y="856" dy="0.5ex" text-anchor="middle" font-family="sans-serif" font-size="9.67741935483871" opacity="1" fill="#E6EDF3" font-weight="bold">
q5
</text>
<rect x="190" y="880" width="12" height="12" opacity="1" fill="#2563EB" stroke="none"/>
<text x="208" y="886" dy="0.5ex" text-anchor="start" font-family="sans-serif" font-size="8.870967741935484" opacity="1" fill="#E6EDF3">
Google Brotli C 1.1.0
</text>
<rect x="190" y="900" width="12" height="12" opacity="1" fill="#F87171" stroke="none"/>
<text x="208" y="906" dy="0.5ex" text-anchor="start" font-family="sans-serif" font-size="8.870967741935484" opacity="1" fill="#E6EDF3">
burli
</text>
<rect x="440" y="880" width="12" height="12" opacity="1" fill="#4ADE80" stroke="none"/>
<text x="458" y="886" dy="0.5ex" text-anchor="start" font-family="sans-serif" font-size="8.870967741935484" opacity="1" fill="#E6EDF3">
rust-brotli 8.0.4
</text>
<text x="215" y="942" dy="0.5ex" text-anchor="start" font-family="sans-serif" font-size="8.064516129032258" opacity="1" fill="#E6EDF3">
bright = compress + decompress
</text>
<text x="455" y="942" dy="0.5ex" text-anchor="start" font-family="sans-serif" font-size="8.064516129032258" opacity="1" fill="#7D8590">
dim = transfer @100 MB/s
</text>
</svg>
