<svg viewBox="0 0 850 968" xmlns="http://www.w3.org/2000/svg" font-family="system-ui, -apple-system, sans-serif">
<rect x="0" y="0" width="850" height="968" opacity="1" fill="#0D1117" stroke="none"/>
<text x="425" y="22" dy="0.5ex" text-anchor="middle" font-family="sans-serif" font-size="12.096774193548388" opacity="1" fill="#E6EDF3" font-weight="bold">
14-file web corpus: Pipeline @100 MB/s by content shape (lower is better)
</text>
<text x="425" y="40" dy="0.5ex" text-anchor="middle" font-family="sans-serif" font-size="8.870967741935484" opacity="1" fill="#7D8590">
Linux VM on a 2018 Mac Mini, Intel Core i7-8700B @ 3.20GHz, performance governor, turbo off
</text>
<text x="22" y="461" dy="0.5ex" text-anchor="middle" font-family="sans-serif" font-size="9.67741935483871" opacity="1" fill="#E6EDF3" font-weight="bold" transform="rotate(270, 22, 461)">
seconds / GB
</text>
<text x="450" y="74" dy="0.5ex" text-anchor="middle" font-family="sans-serif" font-size="10.483870967741936" opacity="1" fill="#E6EDF3" font-weight="bold">
JavaScript
</text>
<polyline fill="none" opacity="1" stroke="#21262D" stroke-width="1" points="70,241 830,241 "/>
<text x="62" y="241" dy="0.5ex" text-anchor="end" font-family="sans-serif" font-size="8.870967741935484" opacity="1" fill="#7D8590">
10.0
</text>
<polyline fill="none" opacity="1" stroke="#21262D" stroke-width="1" points="70,199 830,199 "/>
<text x="62" y="199" dy="0.5ex" text-anchor="end" font-family="sans-serif" font-size="8.870967741935484" opacity="1" fill="#7D8590">
20.0
</text>
<polyline fill="none" opacity="1" stroke="#21262D" stroke-width="1" points="70,156 830,156 "/>
<text x="62" y="156" dy="0.5ex" text-anchor="end" font-family="sans-serif" font-size="8.870967741935484" opacity="1" fill="#7D8590">
30.0
</text>
<polyline fill="none" opacity="1" stroke="#21262D" stroke-width="1" points="70,113 830,113 "/>
<text x="62" y="113" dy="0.5ex" text-anchor="end" font-family="sans-serif" font-size="8.870967741935484" opacity="1" fill="#7D8590">
40.0
</text>
<polyline fill="none" opacity="1" stroke="#30363D" stroke-width="2" points="70,284 830,284 "/>
<rect x="85" y="269" width="22" height="15" opacity="1" fill="#2563EB" stroke="none"/>
<rect x="85" y="257" width="22" height="12" opacity="1" fill="#1D4ED8" stroke="none"/>
<rect x="85" y="244" width="22" height="13" opacity="1" fill="#2563EB" stroke="none"/>
<rect x="110" y="265" width="22" height="19" opacity="1" fill="#F87171" stroke="none"/>
<rect x="110" y="251" width="22" height="14" opacity="1" fill="#C45050" stroke="none"/>
<rect x="110" y="232" width="22" height="19" opacity="1" fill="#F87171" stroke="none"/>
<rect x="135" y="265" width="22" height="19" opacity="1" fill="#F472B6" stroke="none"/>
<rect x="135" y="251" width="22" height="14" opacity="1" fill="#C05A92" stroke="none"/>
<rect x="135" y="232" width="22" height="19" opacity="1" fill="#F472B6" stroke="none"/>
<rect x="160" y="225" width="22" height="59" opacity="1" fill="#4ADE80" stroke="none"/>
<rect x="160" y="208" width="22" height="17" opacity="1" fill="#3AAF60" stroke="none"/>
<rect x="160" y="166" width="22" height="42" opacity="1" fill="#4ADE80" stroke="none"/>
<text x="133" y="302" dy="0.5ex" text-anchor="middle" font-family="sans-serif" font-size="9.67741935483871" opacity="1" fill="#E6EDF3" font-weight="bold">
q0
</text>
<rect x="212" y="264" width="22" height="20" opacity="1" fill="#2563EB" stroke="none"/>
<rect x="212" y="252" width="22" height="12" opacity="1" fill="#1D4ED8" stroke="none"/>
<rect x="212" y="240" width="22" height="12" opacity="1" fill="#2563EB" stroke="none"/>
<rect x="237" y="263" width="22" height="21" opacity="1" fill="#F87171" stroke="none"/>
<rect x="237" y="251" width="22" height="12" opacity="1" fill="#C45050" stroke="none"/>
<rect x="237" y="232" width="22" height="19" opacity="1" fill="#F87171" stroke="none"/>
<rect x="262" y="263" width="22" height="21" opacity="1" fill="#F472B6" stroke="none"/>
<rect x="262" y="250" width="22" height="13" opacity="1" fill="#C05A92" stroke="none"/>
<rect x="262" y="231" width="22" height="19" opacity="1" fill="#F472B6" stroke="none"/>
<rect x="287" y="219" width="22" height="65" opacity="1" fill="#4ADE80" stroke="none"/>
<rect x="287" y="202" width="22" height="17" opacity="1" fill="#3AAF60" stroke="none"/>
<rect x="287" y="159" width="22" height="43" opacity="1" fill="#4ADE80" stroke="none"/>
<text x="260" y="302" dy="0.5ex" text-anchor="middle" font-family="sans-serif" font-size="9.67741935483871" opacity="1" fill="#E6EDF3" font-weight="bold">
q1
</text>
<rect x="338" y="244" width="22" height="40" opacity="1" fill="#2563EB" stroke="none"/>
<rect x="338" y="233" width="22" height="11" opacity="1" fill="#1D4ED8" stroke="none"/>
<rect x="338" y="221" width="22" height="12" opacity="1" fill="#2563EB" stroke="none"/>
<rect x="363" y="238" width="22" height="46" opacity="1" fill="#F87171" stroke="none"/>
<rect x="363" y="227" width="22" height="11" opacity="1" fill="#C45050" stroke="none"/>
<rect x="363" y="210" width="22" height="17" opacity="1" fill="#F87171" stroke="none"/>
<rect x="388" y="238" width="22" height="46" opacity="1" fill="#F472B6" stroke="none"/>
<rect x="388" y="227" width="22" height="11" opacity="1" fill="#C05A92" stroke="none"/>
<rect x="388" y="210" width="22" height="17" opacity="1" fill="#F472B6" stroke="none"/>
<rect x="413" y="221" width="22" height="63" opacity="1" fill="#4ADE80" stroke="none"/>
<rect x="413" y="210" width="22" height="11" opacity="1" fill="#3AAF60" stroke="none"/>
<rect x="413" y="188" width="22" height="22" opacity="1" fill="#4ADE80" stroke="none"/>
<text x="387" y="302" dy="0.5ex" text-anchor="middle" font-family="sans-serif" font-size="9.67741935483871" opacity="1" fill="#E6EDF3" font-weight="bold">
q2
</text>
<rect x="465" y="239" width="22" height="45" opacity="1" fill="#2563EB" stroke="none"/>
<rect x="465" y="228" width="22" height="11" opacity="1" fill="#1D4ED8" stroke="none"/>
<rect x="465" y="216" width="22" height="12" opacity="1" fill="#2563EB" stroke="none"/>
<rect x="490" y="230" width="22" height="54" opacity="1" fill="#F87171" stroke="none"/>
<rect x="490" y="219" width="22" height="11" opacity="1" fill="#C45050" stroke="none"/>
<rect x="490" y="202" width="22" height="17" opacity="1" fill="#F87171" stroke="none"/>
<rect x="515" y="230" width="22" height="54" opacity="1" fill="#F472B6" stroke="none"/>
<rect x="515" y="219" width="22" height="11" opacity="1" fill="#C05A92" stroke="none"/>
<rect x="515" y="203" width="22" height="16" opacity="1" fill="#F472B6" stroke="none"/>
<rect x="540" y="215" width="22" height="69" opacity="1" fill="#4ADE80" stroke="none"/>
<rect x="540" y="204" width="22" height="11" opacity="1" fill="#3AAF60" stroke="none"/>
<rect x="540" y="183" width="22" height="21" opacity="1" fill="#4ADE80" stroke="none"/>
<text x="513" y="302" dy="0.5ex" text-anchor="middle" font-family="sans-serif" font-size="9.67741935483871" opacity="1" fill="#E6EDF3" font-weight="bold">
q3
</text>
<rect x="592" y="217" width="22" height="67" opacity="1" fill="#2563EB" stroke="none"/>
<rect x="592" y="206" width="22" height="11" opacity="1" fill="#1D4ED8" stroke="none"/>
<rect x="592" y="195" width="22" height="11" opacity="1" fill="#2563EB" stroke="none"/>
<rect x="617" y="212" width="22" height="72" opacity="1" fill="#F87171" stroke="none"/>
<rect x="617" y="201" width="22" height="11" opacity="1" fill="#C45050" stroke="none"/>
<rect x="617" y="183" width="22" height="18" opacity="1" fill="#F87171" stroke="none"/>
<rect x="642" y="211" width="22" height="73" opacity="1" fill="#F472B6" stroke="none"/>
<rect x="642" y="200" width="22" height="11" opacity="1" fill="#C05A92" stroke="none"/>
<rect x="642" y="183" width="22" height="17" opacity="1" fill="#F472B6" stroke="none"/>
<rect x="667" y="196" width="22" height="88" opacity="1" fill="#4ADE80" stroke="none"/>
<rect x="667" y="185" width="22" height="11" opacity="1" fill="#3AAF60" stroke="none"/>
<rect x="667" y="166" width="22" height="19" opacity="1" fill="#4ADE80" stroke="none"/>
<text x="640" y="302" dy="0.5ex" text-anchor="middle" font-family="sans-serif" font-size="9.67741935483871" opacity="1" fill="#E6EDF3" font-weight="bold">
q4
</text>
<rect x="718" y="173" width="22" height="111" opacity="1" fill="#2563EB" stroke="none"/>
<rect x="718" y="164" width="22" height="9" opacity="1" fill="#1D4ED8" stroke="none"/>
<rect x="718" y="154" width="22" height="10" opacity="1" fill="#2563EB" stroke="none"/>
<rect x="743" y="181" width="22" height="103" opacity="1" fill="#F87171" stroke="none"/>
<rect x="743" y="171" width="22" height="10" opacity="1" fill="#C45050" stroke="none"/>
<rect x="743" y="154" width="22" height="17" opacity="1" fill="#F87171" stroke="none"/>
<rect x="768" y="177" width="22" height="107" opacity="1" fill="#F472B6" stroke="none"/>
<rect x="768" y="167" width="22" height="10" opacity="1" fill="#C05A92" stroke="none"/>
<rect x="768" y="151" width="22" height="16" opacity="1" fill="#F472B6" stroke="none"/>
<rect x="793" y="138" width="22" height="146" opacity="1" fill="#4ADE80" stroke="none"/>
<rect x="793" y="128" width="22" height="10" opacity="1" fill="#3AAF60" stroke="none"/>
<rect x="793" y="110" width="22" height="18" opacity="1" fill="#4ADE80" stroke="none"/>
<text x="767" y="302" dy="0.5ex" text-anchor="middle" font-family="sans-serif" font-size="9.67741935483871" opacity="1" fill="#E6EDF3" font-weight="bold">
q5
</text>
<text x="450" y="351" dy="0.5ex" text-anchor="middle" font-family="sans-serif" font-size="10.483870967741936" opacity="1" fill="#E6EDF3" font-weight="bold">
CSS
</text>
<polyline fill="none" opacity="1" stroke="#21262D" stroke-width="1" points="70,495 830,495 "/>
<text x="62" y="495" dy="0.5ex" text-anchor="end" font-family="sans-serif" font-size="8.870967741935484" opacity="1" fill="#7D8590">
10.0
</text>
<polyline fill="none" opacity="1" stroke="#21262D" stroke-width="1" points="70,429 830,429 "/>
<text x="62" y="429" dy="0.5ex" text-anchor="end" font-family="sans-serif" font-size="8.870967741935484" opacity="1" fill="#7D8590">
20.0
</text>
<polyline fill="none" opacity="1" stroke="#21262D" stroke-width="1" points="70,364 830,364 "/>
<text x="62" y="364" dy="0.5ex" text-anchor="end" font-family="sans-serif" font-size="8.870967741935484" opacity="1" fill="#7D8590">
30.0
</text>
<polyline fill="none" opacity="1" stroke="#30363D" stroke-width="2" points="70,561 830,561 "/>
<rect x="85" y="546" width="22" height="15" opacity="1" fill="#2563EB" stroke="none"/>
<rect x="85" y="534" width="22" height="12" opacity="1" fill="#1D4ED8" stroke="none"/>
<rect x="85" y="522" width="22" height="12" opacity="1" fill="#2563EB" stroke="none"/>
<rect x="110" y="542" width="22" height="19" opacity="1" fill="#F87171" stroke="none"/>
<rect x="110" y="530" width="22" height="12" opacity="1" fill="#C45050" stroke="none"/>
<rect x="110" y="510" width="22" height="20" opacity="1" fill="#F87171" stroke="none"/>
<rect x="135" y="542" width="22" height="19" opacity="1" fill="#F472B6" stroke="none"/>
<rect x="135" y="529" width="22" height="13" opacity="1" fill="#C05A92" stroke="none"/>
<rect x="135" y="510" width="22" height="19" opacity="1" fill="#F472B6" stroke="none"/>
<rect x="160" y="493" width="22" height="68" opacity="1" fill="#4ADE80" stroke="none"/>
<rect x="160" y="476" width="22" height="17" opacity="1" fill="#3AAF60" stroke="none"/>
<rect x="160" y="428" width="22" height="48" opacity="1" fill="#4ADE80" stroke="none"/>
<text x="133" y="579" dy="0.5ex" text-anchor="middle" font-family="sans-serif" font-size="9.67741935483871" opacity="1" fill="#E6EDF3" font-weight="bold">
q0
</text>
<rect x="212" y="543" width="22" height="18" opacity="1" fill="#2563EB" stroke="none"/>
<rect x="212" y="532" width="22" height="11" opacity="1" fill="#1D4ED8" stroke="none"/>
<rect x="212" y="519" width="22" height="13" opacity="1" fill="#2563EB" stroke="none"/>
<rect x="237" y="542" width="22" height="19" opacity="1" fill="#F87171" stroke="none"/>
<rect x="237" y="531" width="22" height="11" opacity="1" fill="#C45050" stroke="none"/>
<rect x="237" y="511" width="22" height="20" opacity="1" fill="#F87171" stroke="none"/>
<rect x="262" y="541" width="22" height="20" opacity="1" fill="#F472B6" stroke="none"/>
<rect x="262" y="530" width="22" height="11" opacity="1" fill="#C05A92" stroke="none"/>
<rect x="262" y="511" width="22" height="19" opacity="1" fill="#F472B6" stroke="none"/>
<rect x="287" y="492" width="22" height="69" opacity="1" fill="#4ADE80" stroke="none"/>
<rect x="287" y="477" width="22" height="15" opacity="1" fill="#3AAF60" stroke="none"/>
<rect x="287" y="429" width="22" height="48" opacity="1" fill="#4ADE80" stroke="none"/>
<text x="260" y="579" dy="0.5ex" text-anchor="middle" font-family="sans-serif" font-size="9.67741935483871" opacity="1" fill="#E6EDF3" font-weight="bold">
q1
</text>
<rect x="338" y="521" width="22" height="40" opacity="1" fill="#2563EB" stroke="none"/>
<rect x="338" y="511" width="22" height="10" opacity="1" fill="#1D4ED8" stroke="none"/>
<rect x="338" y="499" width="22" height="12" opacity="1" fill="#2563EB" stroke="none"/>
<rect x="363" y="515" width="22" height="46" opacity="1" fill="#F87171" stroke="none"/>
<rect x="363" y="505" width="22" height="10" opacity="1" fill="#C45050" stroke="none"/>
<rect x="363" y="487" width="22" height="18" opacity="1" fill="#F87171" stroke="none"/>
<rect x="388" y="514" width="22" height="47" opacity="1" fill="#F472B6" stroke="none"/>
<rect x="388" y="504" width="22" height="10" opacity="1" fill="#C05A92" stroke="none"/>
<rect x="388" y="487" width="22" height="17" opacity="1" fill="#F472B6" stroke="none"/>
<rect x="413" y="486" width="22" height="75" opacity="1" fill="#4ADE80" stroke="none"/>
<rect x="413" y="476" width="22" height="10" opacity="1" fill="#3AAF60" stroke="none"/>
<rect x="413" y="452" width="22" height="24" opacity="1" fill="#4ADE80" stroke="none"/>
<text x="387" y="579" dy="0.5ex" text-anchor="middle" font-family="sans-serif" font-size="9.67741935483871" opacity="1" fill="#E6EDF3" font-weight="bold">
q2
</text>
<rect x="465" y="515" width="22" height="46" opacity="1" fill="#2563EB" stroke="none"/>
<rect x="465" y="505" width="22" height="10" opacity="1" fill="#1D4ED8" stroke="none"/>
<rect x="465" y="494" width="22" height="11" opacity="1" fill="#2563EB" stroke="none"/>
<rect x="490" y="507" width="22" height="54" opacity="1" fill="#F87171" stroke="none"/>
<rect x="490" y="498" width="22" height="9" opacity="1" fill="#C45050" stroke="none"/>
<rect x="490" y="481" width="22" height="17" opacity="1" fill="#F87171" stroke="none"/>
<rect x="515" y="507" width="22" height="54" opacity="1" fill="#F472B6" stroke="none"/>
<rect x="515" y="498" width="22" height="9" opacity="1" fill="#C05A92" stroke="none"/>
<rect x="515" y="482" width="22" height="16" opacity="1" fill="#F472B6" stroke="none"/>
<rect x="540" y="481" width="22" height="80" opacity="1" fill="#4ADE80" stroke="none"/>
<rect x="540" y="471" width="22" height="10" opacity="1" fill="#3AAF60" stroke="none"/>
<rect x="540" y="449" width="22" height="22" opacity="1" fill="#4ADE80" stroke="none"/>
<text x="513" y="579" dy="0.5ex" text-anchor="middle" font-family="sans-serif" font-size="9.67741935483871" opacity="1" fill="#E6EDF3" font-weight="bold">
q3
</text>
<rect x="592" y="493" width="22" height="68" opacity="1" fill="#2563EB" stroke="none"/>
<rect x="592" y="484" width="22" height="9" opacity="1" fill="#1D4ED8" stroke="none"/>
<rect x="592" y="473" width="22" height="11" opacity="1" fill="#2563EB" stroke="none"/>
<rect x="617" y="495" width="22" height="66" opacity="1" fill="#F87171" stroke="none"/>
<rect x="617" y="486" width="22" height="9" opacity="1" fill="#C45050" stroke="none"/>
<rect x="617" y="469" width="22" height="17" opacity="1" fill="#F87171" stroke="none"/>
<rect x="642" y="494" width="22" height="67" opacity="1" fill="#F472B6" stroke="none"/>
<rect x="642" y="484" width="22" height="10" opacity="1" fill="#C05A92" stroke="none"/>
<rect x="642" y="468" width="22" height="16" opacity="1" fill="#F472B6" stroke="none"/>
<rect x="667" y="461" width="22" height="100" opacity="1" fill="#4ADE80" stroke="none"/>
<rect x="667" y="453" width="22" height="8" opacity="1" fill="#3AAF60" stroke="none"/>
<rect x="667" y="432" width="22" height="21" opacity="1" fill="#4ADE80" stroke="none"/>
<text x="640" y="579" dy="0.5ex" text-anchor="middle" font-family="sans-serif" font-size="9.67741935483871" opacity="1" fill="#E6EDF3" font-weight="bold">
q4
</text>
<rect x="718" y="458" width="22" height="103" opacity="1" fill="#2563EB" stroke="none"/>
<rect x="718" y="450" width="22" height="8" opacity="1" fill="#1D4ED8" stroke="none"/>
<rect x="718" y="440" width="22" height="10" opacity="1" fill="#2563EB" stroke="none"/>
<rect x="743" y="473" width="22" height="88" opacity="1" fill="#F87171" stroke="none"/>
<rect x="743" y="465" width="22" height="8" opacity="1" fill="#C45050" stroke="none"/>
<rect x="743" y="450" width="22" height="15" opacity="1" fill="#F87171" stroke="none"/>
<rect x="768" y="464" width="22" height="97" opacity="1" fill="#F472B6" stroke="none"/>
<rect x="768" y="456" width="22" height="8" opacity="1" fill="#C05A92" stroke="none"/>
<rect x="768" y="442" width="22" height="14" opacity="1" fill="#F472B6" stroke="none"/>
<rect x="793" y="413" width="22" height="148" opacity="1" fill="#4ADE80" stroke="none"/>
<rect x="793" y="405" width="22" height="8" opacity="1" fill="#3AAF60" stroke="none"/>
<rect x="793" y="387" width="22" height="18" opacity="1" fill="#4ADE80" stroke="none"/>
<text x="767" y="579" dy="0.5ex" text-anchor="middle" font-family="sans-serif" font-size="9.67741935483871" opacity="1" fill="#E6EDF3" font-weight="bold">
q5
</text>
<text x="450" y="628" dy="0.5ex" text-anchor="middle" font-family="sans-serif" font-size="10.483870967741936" opacity="1" fill="#E6EDF3" font-weight="bold">
Data/docs
</text>
<polyline fill="none" opacity="1" stroke="#21262D" stroke-width="1" points="70,784 830,784 "/>
<text x="62" y="784" dy="0.5ex" text-anchor="end" font-family="sans-serif" font-size="8.870967741935484" opacity="1" fill="#7D8590">
10.0
</text>
<polyline fill="none" opacity="1" stroke="#21262D" stroke-width="1" points="70,731 830,731 "/>
<text x="62" y="731" dy="0.5ex" text-anchor="end" font-family="sans-serif" font-size="8.870967741935484" opacity="1" fill="#7D8590">
20.0
</text>
<polyline fill="none" opacity="1" stroke="#21262D" stroke-width="1" points="70,677 830,677 "/>
<text x="62" y="677" dy="0.5ex" text-anchor="end" font-family="sans-serif" font-size="8.870967741935484" opacity="1" fill="#7D8590">
30.0
</text>
<polyline fill="none" opacity="1" stroke="#30363D" stroke-width="2" points="70,838 830,838 "/>
<rect x="85" y="824" width="22" height="14" opacity="1" fill="#2563EB" stroke="none"/>
<rect x="85" y="814" width="22" height="10" opacity="1" fill="#1D4ED8" stroke="none"/>
<rect x="85" y="803" width="22" height="11" opacity="1" fill="#2563EB" stroke="none"/>
<rect x="110" y="822" width="22" height="16" opacity="1" fill="#F87171" stroke="none"/>
<rect x="110" y="810" width="22" height="12" opacity="1" fill="#C45050" stroke="none"/>
<rect x="110" y="794" width="22" height="16" opacity="1" fill="#F87171" stroke="none"/>
<rect x="135" y="822" width="22" height="16" opacity="1" fill="#F472B6" stroke="none"/>
<rect x="135" y="809" width="22" height="13" opacity="1" fill="#C05A92" stroke="none"/>
<rect x="135" y="794" width="22" height="15" opacity="1" fill="#F472B6" stroke="none"/>
<rect x="160" y="775" width="22" height="63" opacity="1" fill="#4ADE80" stroke="none"/>
<rect x="160" y="759" width="22" height="16" opacity="1" fill="#3AAF60" stroke="none"/>
<rect x="160" y="719" width="22" height="40" opacity="1" fill="#4ADE80" stroke="none"/>
<text x="133" y="856" dy="0.5ex" text-anchor="middle" font-family="sans-serif" font-size="9.67741935483871" opacity="1" fill="#E6EDF3" font-weight="bold">
q0
</text>
<rect x="212" y="820" width="22" height="18" opacity="1" fill="#2563EB" stroke="none"/>
<rect x="212" y="811" width="22" height="9" opacity="1" fill="#1D4ED8" stroke="none"/>
<rect x="212" y="800" width="22" height="11" opacity="1" fill="#2563EB" stroke="none"/>
<rect x="237" y="819" width="22" height="19" opacity="1" fill="#F87171" stroke="none"/>
<rect x="237" y="809" width="22" height="10" opacity="1" fill="#C45050" stroke="none"/>
<rect x="237" y="795" width="22" height="14" opacity="1" fill="#F87171" stroke="none"/>
<rect x="262" y="818" width="22" height="20" opacity="1" fill="#F472B6" stroke="none"/>
<rect x="262" y="808" width="22" height="10" opacity="1" fill="#C05A92" stroke="none"/>
<rect x="262" y="794" width="22" height="14" opacity="1" fill="#F472B6" stroke="none"/>
<rect x="287" y="772" width="22" height="66" opacity="1" fill="#4ADE80" stroke="none"/>
<rect x="287" y="756" width="22" height="16" opacity="1" fill="#3AAF60" stroke="none"/>
<rect x="287" y="715" width="22" height="41" opacity="1" fill="#4ADE80" stroke="none"/>
<text x="260" y="856" dy="0.5ex" text-anchor="middle" font-family="sans-serif" font-size="9.67741935483871" opacity="1" fill="#E6EDF3" font-weight="bold">
q1
</text>
<rect x="338" y="803" width="22" height="35" opacity="1" fill="#2563EB" stroke="none"/>
<rect x="338" y="794" width="22" height="9" opacity="1" fill="#1D4ED8" stroke="none"/>
<rect x="338" y="784" width="22" height="10" opacity="1" fill="#2563EB" stroke="none"/>
<rect x="363" y="798" width="22" height="40" opacity="1" fill="#F87171" stroke="none"/>
<rect x="363" y="789" width="22" height="9" opacity="1" fill="#C45050" stroke="none"/>
<rect x="363" y="774" width="22" height="15" opacity="1" fill="#F87171" stroke="none"/>
<rect x="388" y="797" width="22" height="41" opacity="1" fill="#F472B6" stroke="none"/>
<rect x="388" y="788" width="22" height="9" opacity="1" fill="#C05A92" stroke="none"/>
<rect x="388" y="774" width="22" height="14" opacity="1" fill="#F472B6" stroke="none"/>
<rect x="413" y="787" width="22" height="51" opacity="1" fill="#4ADE80" stroke="none"/>
<rect x="413" y="778" width="22" height="9" opacity="1" fill="#3AAF60" stroke="none"/>
<rect x="413" y="761" width="22" height="17" opacity="1" fill="#4ADE80" stroke="none"/>
<text x="387" y="856" dy="0.5ex" text-anchor="middle" font-family="sans-serif" font-size="9.67741935483871" opacity="1" fill="#E6EDF3" font-weight="bold">
q2
</text>
<rect x="465" y="798" width="22" height="40" opacity="1" fill="#2563EB" stroke="none"/>
<rect x="465" y="789" width="22" height="9" opacity="1" fill="#1D4ED8" stroke="none"/>
<rect x="465" y="780" width="22" height="9" opacity="1" fill="#2563EB" stroke="none"/>
<rect x="490" y="791" width="22" height="47" opacity="1" fill="#F87171" stroke="none"/>
<rect x="490" y="782" width="22" height="9" opacity="1" fill="#C45050" stroke="none"/>
<rect x="490" y="769" width="22" height="13" opacity="1" fill="#F87171" stroke="none"/>
<rect x="515" y="792" width="22" height="46" opacity="1" fill="#F472B6" stroke="none"/>
<rect x="515" y="783" width="22" height="9" opacity="1" fill="#C05A92" stroke="none"/>
<rect x="515" y="770" width="22" height="13" opacity="1" fill="#F472B6" stroke="none"/>
<rect x="540" y="782" width="22" height="56" opacity="1" fill="#4ADE80" stroke="none"/>
<rect x="540" y="773" width="22" height="9" opacity="1" fill="#3AAF60" stroke="none"/>
<rect x="540" y="758" width="22" height="15" opacity="1" fill="#4ADE80" stroke="none"/>
<text x="513" y="856" dy="0.5ex" text-anchor="middle" font-family="sans-serif" font-size="9.67741935483871" opacity="1" fill="#E6EDF3" font-weight="bold">
q3
</text>
<rect x="592" y="780" width="22" height="58" opacity="1" fill="#2563EB" stroke="none"/>
<rect x="592" y="772" width="22" height="8" opacity="1" fill="#1D4ED8" stroke="none"/>
<rect x="592" y="765" width="22" height="7" opacity="1" fill="#2563EB" stroke="none"/>
<rect x="617" y="787" width="22" height="51" opacity="1" fill="#F87171" stroke="none"/>
<rect x="617" y="780" width="22" height="7" opacity="1" fill="#C45050" stroke="none"/>
<rect x="617" y="768" width="22" height="12" opacity="1" fill="#F87171" stroke="none"/>
<rect x="642" y="787" width="22" height="51" opacity="1" fill="#F472B6" stroke="none"/>
<rect x="642" y="779" width="22" height="8" opacity="1" fill="#C05A92" stroke="none"/>
<rect x="642" y="768" width="22" height="11" opacity="1" fill="#F472B6" stroke="none"/>
<rect x="667" y="743" width="22" height="95" opacity="1" fill="#4ADE80" stroke="none"/>
<rect x="667" y="735" width="22" height="8" opacity="1" fill="#3AAF60" stroke="none"/>
<rect x="667" y="720" width="22" height="15" opacity="1" fill="#4ADE80" stroke="none"/>
<text x="640" y="856" dy="0.5ex" text-anchor="middle" font-family="sans-serif" font-size="9.67741935483871" opacity="1" fill="#E6EDF3" font-weight="bold">
q4
</text>
<rect x="718" y="728" width="22" height="110" opacity="1" fill="#2563EB" stroke="none"/>
<rect x="718" y="721" width="22" height="7" opacity="1" fill="#1D4ED8" stroke="none"/>
<rect x="718" y="713" width="22" height="8" opacity="1" fill="#2563EB" stroke="none"/>
<rect x="743" y="749" width="22" height="89" opacity="1" fill="#F87171" stroke="none"/>
<rect x="743" y="742" width="22" height="7" opacity="1" fill="#C45050" stroke="none"/>
<rect x="743" y="731" width="22" height="11" opacity="1" fill="#F87171" stroke="none"/>
<rect x="768" y="748" width="22" height="90" opacity="1" fill="#F472B6" stroke="none"/>
<rect x="768" y="741" width="22" height="7" opacity="1" fill="#C05A92" stroke="none"/>
<rect x="768" y="730" width="22" height="11" opacity="1" fill="#F472B6" stroke="none"/>
<rect x="793" y="685" width="22" height="153" opacity="1" fill="#4ADE80" stroke="none"/>
<rect x="793" y="678" width="22" height="7" opacity="1" fill="#3AAF60" stroke="none"/>
<rect x="793" y="664" width="22" height="14" opacity="1" fill="#4ADE80" stroke="none"/>
<text x="767" y="856" dy="0.5ex" text-anchor="middle" font-family="sans-serif" font-size="9.67741935483871" opacity="1" fill="#E6EDF3" font-weight="bold">
q5
</text>
<rect x="45" y="880" width="12" height="12" opacity="1" fill="#2563EB" stroke="none"/>
<text x="63" y="886" dy="0.5ex" text-anchor="start" font-family="sans-serif" font-size="8.870967741935484" opacity="1" fill="#E6EDF3">
Google Brotli C 1.1.0
</text>
<rect x="298" y="880" width="12" height="12" opacity="1" fill="#F87171" stroke="none"/>
<text x="316" y="886" dy="0.5ex" text-anchor="start" font-family="sans-serif" font-size="8.870967741935484" opacity="1" fill="#E6EDF3">
burli
</text>
<rect x="463" y="880" width="12" height="12" opacity="1" fill="#F472B6" stroke="none"/>
<text x="481" y="886" dy="0.5ex" text-anchor="start" font-family="sans-serif" font-size="8.870967741935484" opacity="1" fill="#E6EDF3">
burli paranoid
</text>
<rect x="678" y="880" width="12" height="12" opacity="1" fill="#4ADE80" stroke="none"/>
<text x="696" y="886" dy="0.5ex" text-anchor="start" font-family="sans-serif" font-size="8.870967741935484" opacity="1" fill="#E6EDF3">
rust-brotli 8.0.4
</text>
<text x="215" y="922" dy="0.5ex" text-anchor="start" font-family="sans-serif" font-size="8.064516129032258" opacity="1" fill="#E6EDF3">
bright = compress + decompress
</text>
<text x="455" y="922" dy="0.5ex" text-anchor="start" font-family="sans-serif" font-size="8.064516129032258" opacity="1" fill="#7D8590">
dim = transfer @100 MB/s
</text>
</svg>
