<svg viewBox="0 0 850 787" xmlns="http://www.w3.org/2000/svg" font-family="system-ui, -apple-system, sans-serif">
<rect x="0" y="0" width="850" height="787" opacity="1" fill="#0D1117" stroke="none"/>
<text x="425" y="22" dy="0.5ex" text-anchor="middle" font-family="sans-serif" font-size="12.096774193548388" opacity="1" fill="#E6EDF3" font-weight="bold">
14-file web corpus: Per-file pipeline @100 MB/s, q5 (lower is better)
</text>
<text x="425" y="40" dy="0.5ex" text-anchor="middle" font-family="sans-serif" font-size="8.870967741935484" opacity="1" fill="#7D8590">
Linux VM on a 2018 Mac Mini, Intel Core i7-8700B @ 3.20GHz, performance governor, turbo off
</text>
<text x="22" y="337" dy="0.5ex" text-anchor="middle" font-family="sans-serif" font-size="9.67741935483871" opacity="1" fill="#E6EDF3" font-weight="bold" transform="rotate(270, 22, 337)">
seconds / GB
</text>
<polyline fill="none" opacity="1" stroke="#21262D" stroke-width="1" points="55,224 830,224 "/>
<text x="47" y="224" dy="0.5ex" text-anchor="end" font-family="sans-serif" font-size="8.870967741935484" opacity="1" fill="#7D8590">
100
</text>
<polyline fill="none" opacity="1" stroke="#21262D" stroke-width="1" points="55,147 830,147 "/>
<text x="47" y="147" dy="0.5ex" text-anchor="end" font-family="sans-serif" font-size="8.870967741935484" opacity="1" fill="#7D8590">
200
</text>
<polyline fill="none" opacity="1" stroke="#21262D" stroke-width="1" points="55,69 830,69 "/>
<text x="47" y="69" dy="0.5ex" text-anchor="end" font-family="sans-serif" font-size="8.870967741935484" opacity="1" fill="#7D8590">
300
</text>
<polyline fill="none" opacity="1" stroke="#30363D" stroke-width="2" points="55,302 830,302 "/>
<rect x="68" y="277" width="19" height="25" opacity="1" fill="#2563EB" stroke="none"/>
<rect x="68" y="275" width="19" height="2" opacity="1" fill="#1D4ED8" stroke="none"/>
<rect x="68" y="273" width="19" height="2" opacity="1" fill="#2563EB" stroke="none"/>
<rect x="90" y="279" width="19" height="23" opacity="1" fill="#F87171" stroke="none"/>
<rect x="90" y="277" width="19" height="2" opacity="1" fill="#C45050" stroke="none"/>
<rect x="90" y="273" width="19" height="4" opacity="1" fill="#F87171" stroke="none"/>
<rect x="112" y="279" width="19" height="23" opacity="1" fill="#F472B6" stroke="none"/>
<rect x="112" y="277" width="19" height="2" opacity="1" fill="#C05A92" stroke="none"/>
<rect x="112" y="273" width="19" height="4" opacity="1" fill="#F472B6" stroke="none"/>
<rect x="134" y="269" width="19" height="33" opacity="1" fill="#4ADE80" stroke="none"/>
<rect x="134" y="267" width="19" height="2" opacity="1" fill="#3AAF60" stroke="none"/>
<rect x="134" y="263" width="19" height="4" opacity="1" fill="#4ADE80" stroke="none"/>
<text x="111" y="319" dy="0.5ex" text-anchor="middle" font-family="sans-serif" font-size="8.064516129032258" opacity="1" fill="#E6EDF3" font-weight="bold">
jquery
</text>
<text x="111" y="334" dy="0.5ex" text-anchor="middle" font-family="sans-serif" font-size="8.064516129032258" opacity="1" fill="#7D8590">
285 KB
</text>
<rect x="179" y="286" width="19" height="16" opacity="1" fill="#2563EB" stroke="none"/>
<rect x="179" y="285" width="19" height="1" opacity="1" fill="#1D4ED8" stroke="none"/>
<rect x="179" y="283" width="19" height="2" opacity="1" fill="#2563EB" stroke="none"/>
<rect x="201" y="286" width="19" height="16" opacity="1" fill="#F87171" stroke="none"/>
<rect x="201" y="284" width="19" height="2" opacity="1" fill="#C45050" stroke="none"/>
<rect x="201" y="282" width="19" height="2" opacity="1" fill="#F87171" stroke="none"/>
<rect x="223" y="285" width="19" height="17" opacity="1" fill="#F472B6" stroke="none"/>
<rect x="223" y="284" width="19" height="1" opacity="1" fill="#C05A92" stroke="none"/>
<rect x="223" y="282" width="19" height="2" opacity="1" fill="#F472B6" stroke="none"/>
<rect x="245" y="282" width="19" height="20" opacity="1" fill="#4ADE80" stroke="none"/>
<rect x="245" y="280" width="19" height="2" opacity="1" fill="#3AAF60" stroke="none"/>
<rect x="245" y="278" width="19" height="2" opacity="1" fill="#4ADE80" stroke="none"/>
<text x="222" y="319" dy="0.5ex" text-anchor="middle" font-family="sans-serif" font-size="8.064516129032258" opacity="1" fill="#E6EDF3" font-weight="bold">
lodash
</text>
<text x="222" y="334" dy="0.5ex" text-anchor="middle" font-family="sans-serif" font-size="8.064516129032258" opacity="1" fill="#7D8590">
544 KB
</text>
<rect x="289" y="284" width="19" height="18" opacity="1" fill="#2563EB" stroke="none"/>
<rect x="289" y="282" width="19" height="2" opacity="1" fill="#1D4ED8" stroke="none"/>
<rect x="289" y="280" width="19" height="2" opacity="1" fill="#2563EB" stroke="none"/>
<rect x="311" y="285" width="19" height="17" opacity="1" fill="#F87171" stroke="none"/>
<rect x="311" y="283" width="19" height="2" opacity="1" fill="#C45050" stroke="none"/>
<rect x="311" y="281" width="19" height="2" opacity="1" fill="#F87171" stroke="none"/>
<rect x="333" y="285" width="19" height="17" opacity="1" fill="#F472B6" stroke="none"/>
<rect x="333" y="283" width="19" height="2" opacity="1" fill="#C05A92" stroke="none"/>
<rect x="333" y="280" width="19" height="3" opacity="1" fill="#F472B6" stroke="none"/>
<rect x="355" y="278" width="19" height="24" opacity="1" fill="#4ADE80" stroke="none"/>
<rect x="355" y="276" width="19" height="2" opacity="1" fill="#3AAF60" stroke="none"/>
<rect x="355" y="273" width="19" height="3" opacity="1" fill="#4ADE80" stroke="none"/>
<text x="332" y="319" dy="0.5ex" text-anchor="middle" font-family="sans-serif" font-size="8.064516129032258" opacity="1" fill="#E6EDF3" font-weight="bold">
bootstrap-js
</text>
<text x="332" y="334" dy="0.5ex" text-anchor="middle" font-family="sans-serif" font-size="8.064516129032258" opacity="1" fill="#7D8590">
208 KB
</text>
<rect x="400" y="290" width="19" height="12" opacity="1" fill="#2563EB" stroke="none"/>
<rect x="400" y="289" width="19" height="1" opacity="1" fill="#1D4ED8" stroke="none"/>
<rect x="400" y="288" width="19" height="1" opacity="1" fill="#2563EB" stroke="none"/>
<rect x="422" y="292" width="19" height="10" opacity="1" fill="#F87171" stroke="none"/>
<rect x="422" y="291" width="19" height="1" opacity="1" fill="#C45050" stroke="none"/>
<rect x="422" y="289" width="19" height="2" opacity="1" fill="#F87171" stroke="none"/>
<rect x="444" y="292" width="19" height="10" opacity="1" fill="#F472B6" stroke="none"/>
<rect x="444" y="291" width="19" height="1" opacity="1" fill="#C05A92" stroke="none"/>
<rect x="444" y="289" width="19" height="2" opacity="1" fill="#F472B6" stroke="none"/>
<rect x="466" y="286" width="19" height="16" opacity="1" fill="#4ADE80" stroke="none"/>
<rect x="466" y="285" width="19" height="1" opacity="1" fill="#3AAF60" stroke="none"/>
<rect x="466" y="283" width="19" height="2" opacity="1" fill="#4ADE80" stroke="none"/>
<text x="443" y="319" dy="0.5ex" text-anchor="middle" font-family="sans-serif" font-size="8.064516129032258" opacity="1" fill="#E6EDF3" font-weight="bold">
bootstrap-css
</text>
<text x="443" y="334" dy="0.5ex" text-anchor="middle" font-family="sans-serif" font-size="8.064516129032258" opacity="1" fill="#7D8590">
281 KB
</text>
<rect x="511" y="287" width="19" height="15" opacity="1" fill="#2563EB" stroke="none"/>
<rect x="511" y="285" width="19" height="2" opacity="1" fill="#1D4ED8" stroke="none"/>
<rect x="511" y="284" width="19" height="1" opacity="1" fill="#2563EB" stroke="none"/>
<rect x="533" y="288" width="19" height="14" opacity="1" fill="#F87171" stroke="none"/>
<rect x="533" y="286" width="19" height="2" opacity="1" fill="#C45050" stroke="none"/>
<rect x="533" y="284" width="19" height="2" opacity="1" fill="#F87171" stroke="none"/>
<rect x="555" y="288" width="19" height="14" opacity="1" fill="#F472B6" stroke="none"/>
<rect x="555" y="286" width="19" height="2" opacity="1" fill="#C05A92" stroke="none"/>
<rect x="555" y="284" width="19" height="2" opacity="1" fill="#F472B6" stroke="none"/>
<rect x="577" y="273" width="19" height="29" opacity="1" fill="#4ADE80" stroke="none"/>
<rect x="577" y="272" width="19" height="1" opacity="1" fill="#3AAF60" stroke="none"/>
<rect x="577" y="269" width="19" height="3" opacity="1" fill="#4ADE80" stroke="none"/>
<text x="554" y="319" dy="0.5ex" text-anchor="middle" font-family="sans-serif" font-size="8.064516129032258" opacity="1" fill="#E6EDF3" font-weight="bold">
github-css
</text>
<text x="554" y="334" dy="0.5ex" text-anchor="middle" font-family="sans-serif" font-size="8.064516129032258" opacity="1" fill="#7D8590">
28 KB
</text>
<rect x="622" y="279" width="19" height="23" opacity="1" fill="#2563EB" stroke="none"/>
<rect x="622" y="278" width="19" height="1" opacity="1" fill="#1D4ED8" stroke="none"/>
<rect x="622" y="276" width="19" height="2" opacity="1" fill="#2563EB" stroke="none"/>
<rect x="644" y="279" width="19" height="23" opacity="1" fill="#F87171" stroke="none"/>
<rect x="644" y="277" width="19" height="2" opacity="1" fill="#C45050" stroke="none"/>
<rect x="644" y="274" width="19" height="3" opacity="1" fill="#F87171" stroke="none"/>
<rect x="666" y="279" width="19" height="23" opacity="1" fill="#F472B6" stroke="none"/>
<rect x="666" y="277" width="19" height="2" opacity="1" fill="#C05A92" stroke="none"/>
<rect x="666" y="274" width="19" height="3" opacity="1" fill="#F472B6" stroke="none"/>
<rect x="688" y="229" width="19" height="73" opacity="1" fill="#4ADE80" stroke="none"/>
<rect x="688" y="227" width="19" height="2" opacity="1" fill="#3AAF60" stroke="none"/>
<rect x="688" y="222" width="19" height="5" opacity="1" fill="#4ADE80" stroke="none"/>
<text x="665" y="319" dy="0.5ex" text-anchor="middle" font-family="sans-serif" font-size="8.064516129032258" opacity="1" fill="#E6EDF3" font-weight="bold">
normalize
</text>
<text x="665" y="334" dy="0.5ex" text-anchor="middle" font-family="sans-serif" font-size="8.064516129032258" opacity="1" fill="#7D8590">
6 KB
</text>
<rect x="732" y="274" width="19" height="28" opacity="1" fill="#2563EB" stroke="none"/>
<rect x="732" y="271" width="19" height="3" opacity="1" fill="#1D4ED8" stroke="none"/>
<rect x="732" y="269" width="19" height="2" opacity="1" fill="#2563EB" stroke="none"/>
<rect x="754" y="274" width="19" height="28" opacity="1" fill="#F87171" stroke="none"/>
<rect x="754" y="271" width="19" height="3" opacity="1" fill="#C45050" stroke="none"/>
<rect x="754" y="266" width="19" height="5" opacity="1" fill="#F87171" stroke="none"/>
<rect x="776" y="273" width="19" height="29" opacity="1" fill="#F472B6" stroke="none"/>
<rect x="776" y="270" width="19" height="3" opacity="1" fill="#C05A92" stroke="none"/>
<rect x="776" y="266" width="19" height="4" opacity="1" fill="#F472B6" stroke="none"/>
<rect x="798" y="240" width="19" height="62" opacity="1" fill="#4ADE80" stroke="none"/>
<rect x="798" y="237" width="19" height="3" opacity="1" fill="#3AAF60" stroke="none"/>
<rect x="798" y="230" width="19" height="7" opacity="1" fill="#4ADE80" stroke="none"/>
<text x="775" y="319" dy="0.5ex" text-anchor="middle" font-family="sans-serif" font-size="8.064516129032258" opacity="1" fill="#E6EDF3" font-weight="bold">
react-min
</text>
<text x="775" y="334" dy="0.5ex" text-anchor="middle" font-family="sans-serif" font-size="8.064516129032258" opacity="1" fill="#7D8590">
11 KB
</text>
<polyline fill="none" opacity="1" stroke="#21262D" stroke-width="1" points="55,534 830,534 "/>
<text x="47" y="534" dy="0.5ex" text-anchor="end" font-family="sans-serif" font-size="8.870967741935484" opacity="1" fill="#7D8590">
100
</text>
<polyline fill="none" opacity="1" stroke="#21262D" stroke-width="1" points="55,457 830,457 "/>
<text x="47" y="457" dy="0.5ex" text-anchor="end" font-family="sans-serif" font-size="8.870967741935484" opacity="1" fill="#7D8590">
200
</text>
<polyline fill="none" opacity="1" stroke="#21262D" stroke-width="1" points="55,379 830,379 "/>
<text x="47" y="379" dy="0.5ex" text-anchor="end" font-family="sans-serif" font-size="8.870967741935484" opacity="1" fill="#7D8590">
300
</text>
<polyline fill="none" opacity="1" stroke="#30363D" stroke-width="2" points="55,612 830,612 "/>
<rect x="68" y="582" width="19" height="30" opacity="1" fill="#2563EB" stroke="none"/>
<rect x="68" y="579" width="19" height="3" opacity="1" fill="#1D4ED8" stroke="none"/>
<rect x="68" y="576" width="19" height="3" opacity="1" fill="#2563EB" stroke="none"/>
<rect x="90" y="581" width="19" height="31" opacity="1" fill="#F87171" stroke="none"/>
<rect x="90" y="578" width="19" height="3" opacity="1" fill="#C45050" stroke="none"/>
<rect x="90" y="573" width="19" height="5" opacity="1" fill="#F87171" stroke="none"/>
<rect x="112" y="581" width="19" height="31" opacity="1" fill="#F472B6" stroke="none"/>
<rect x="112" y="577" width="19" height="4" opacity="1" fill="#C05A92" stroke="none"/>
<rect x="112" y="573" width="19" height="4" opacity="1" fill="#F472B6" stroke="none"/>
<rect x="134" y="550" width="19" height="62" opacity="1" fill="#4ADE80" stroke="none"/>
<rect x="134" y="547" width="19" height="3" opacity="1" fill="#3AAF60" stroke="none"/>
<rect x="134" y="539" width="19" height="8" opacity="1" fill="#4ADE80" stroke="none"/>
<text x="111" y="629" dy="0.5ex" text-anchor="middle" font-family="sans-serif" font-size="8.064516129032258" opacity="1" fill="#E6EDF3" font-weight="bold">
preact
</text>
<text x="111" y="644" dy="0.5ex" text-anchor="middle" font-family="sans-serif" font-size="8.064516129032258" opacity="1" fill="#7D8590">
11 KB
</text>
<rect x="179" y="582" width="19" height="30" opacity="1" fill="#2563EB" stroke="none"/>
<rect x="179" y="580" width="19" height="2" opacity="1" fill="#1D4ED8" stroke="none"/>
<rect x="179" y="577" width="19" height="3" opacity="1" fill="#2563EB" stroke="none"/>
<rect x="201" y="583" width="19" height="29" opacity="1" fill="#F87171" stroke="none"/>
<rect x="201" y="581" width="19" height="2" opacity="1" fill="#C45050" stroke="none"/>
<rect x="201" y="576" width="19" height="5" opacity="1" fill="#F87171" stroke="none"/>
<rect x="223" y="583" width="19" height="29" opacity="1" fill="#F472B6" stroke="none"/>
<rect x="223" y="580" width="19" height="3" opacity="1" fill="#C05A92" stroke="none"/>
<rect x="223" y="576" width="19" height="4" opacity="1" fill="#F472B6" stroke="none"/>
<rect x="245" y="572" width="19" height="40" opacity="1" fill="#4ADE80" stroke="none"/>
<rect x="245" y="570" width="19" height="2" opacity="1" fill="#3AAF60" stroke="none"/>
<rect x="245" y="564" width="19" height="6" opacity="1" fill="#4ADE80" stroke="none"/>
<text x="222" y="629" dy="0.5ex" text-anchor="middle" font-family="sans-serif" font-size="8.064516129032258" opacity="1" fill="#E6EDF3" font-weight="bold">
vue
</text>
<text x="222" y="644" dy="0.5ex" text-anchor="middle" font-family="sans-serif" font-size="8.064516129032258" opacity="1" fill="#7D8590">
148 KB
</text>
<rect x="289" y="609" width="19" height="3" opacity="1" fill="#2563EB" stroke="none"/>
<rect x="289" y="609" width="19" height="0" opacity="1" fill="#1D4ED8" stroke="none"/>
<rect x="289" y="609" width="19" height="0" opacity="1" fill="#2563EB" stroke="none"/>
<rect x="311" y="610" width="19" height="2" opacity="1" fill="#F87171" stroke="none"/>
<rect x="311" y="610" width="19" height="0" opacity="1" fill="#C45050" stroke="none"/>
<rect x="311" y="610" width="19" height="0" opacity="1" fill="#F87171" stroke="none"/>
<rect x="333" y="610" width="19" height="2" opacity="1" fill="#F472B6" stroke="none"/>
<rect x="333" y="610" width="19" height="0" opacity="1" fill="#C05A92" stroke="none"/>
<rect x="333" y="610" width="19" height="0" opacity="1" fill="#F472B6" stroke="none"/>
<rect x="355" y="608" width="19" height="4" opacity="1" fill="#4ADE80" stroke="none"/>
<rect x="355" y="608" width="19" height="0" opacity="1" fill="#3AAF60" stroke="none"/>
<rect x="355" y="608" width="19" height="0" opacity="1" fill="#4ADE80" stroke="none"/>
<text x="332" y="629" dy="0.5ex" text-anchor="middle" font-family="sans-serif" font-size="8.064516129032258" opacity="1" fill="#E6EDF3" font-weight="bold">
json-citm
</text>
<text x="332" y="644" dy="0.5ex" text-anchor="middle" font-family="sans-serif" font-size="8.064516129032258" opacity="1" fill="#7D8590">
1.7 MB
</text>
<rect x="400" y="555" width="19" height="57" opacity="1" fill="#2563EB" stroke="none"/>
<rect x="400" y="551" width="19" height="4" opacity="1" fill="#1D4ED8" stroke="none"/>
<rect x="400" y="538" width="19" height="13" opacity="1" fill="#2563EB" stroke="none"/>
<rect x="422" y="558" width="19" height="54" opacity="1" fill="#F87171" stroke="none"/>
<rect x="422" y="554" width="19" height="4" opacity="1" fill="#C45050" stroke="none"/>
<rect x="422" y="538" width="19" height="16" opacity="1" fill="#F87171" stroke="none"/>
<rect x="444" y="558" width="19" height="54" opacity="1" fill="#F472B6" stroke="none"/>
<rect x="444" y="553" width="19" height="5" opacity="1" fill="#C05A92" stroke="none"/>
<rect x="444" y="538" width="19" height="15" opacity="1" fill="#F472B6" stroke="none"/>
<rect x="466" y="451" width="19" height="161" opacity="1" fill="#4ADE80" stroke="none"/>
<rect x="466" y="447" width="19" height="4" opacity="1" fill="#3AAF60" stroke="none"/>
<rect x="466" y="394" width="19" height="53" opacity="1" fill="#4ADE80" stroke="none"/>
<text x="443" y="629" dy="0.5ex" text-anchor="middle" font-family="sans-serif" font-size="8.064516129032258" opacity="1" fill="#E6EDF3" font-weight="bold">
mdn-start
</text>
<text x="443" y="644" dy="0.5ex" text-anchor="middle" font-family="sans-serif" font-size="8.064516129032258" opacity="1" fill="#7D8590">
224 B
</text>
<rect x="511" y="576" width="19" height="36" opacity="1" fill="#2563EB" stroke="none"/>
<rect x="511" y="572" width="19" height="4" opacity="1" fill="#1D4ED8" stroke="none"/>
<rect x="511" y="566" width="19" height="6" opacity="1" fill="#2563EB" stroke="none"/>
<rect x="533" y="576" width="19" height="36" opacity="1" fill="#F87171" stroke="none"/>
<rect x="533" y="572" width="19" height="4" opacity="1" fill="#C45050" stroke="none"/>
<rect x="533" y="563" width="19" height="9" opacity="1" fill="#F87171" stroke="none"/>
<rect x="555" y="576" width="19" height="36" opacity="1" fill="#F472B6" stroke="none"/>
<rect x="555" y="573" width="19" height="3" opacity="1" fill="#C05A92" stroke="none"/>
<rect x="555" y="564" width="19" height="9" opacity="1" fill="#F472B6" stroke="none"/>
<rect x="577" y="536" width="19" height="76" opacity="1" fill="#4ADE80" stroke="none"/>
<rect x="577" y="532" width="19" height="4" opacity="1" fill="#3AAF60" stroke="none"/>
<rect x="577" y="511" width="19" height="21" opacity="1" fill="#4ADE80" stroke="none"/>
<text x="554" y="629" dy="0.5ex" text-anchor="middle" font-family="sans-serif" font-size="8.064516129032258" opacity="1" fill="#E6EDF3" font-weight="bold">
mdn-debug
</text>
<text x="554" y="644" dy="0.5ex" text-anchor="middle" font-family="sans-serif" font-size="8.064516129032258" opacity="1" fill="#7D8590">
717 B
</text>
<rect x="622" y="580" width="19" height="32" opacity="1" fill="#2563EB" stroke="none"/>
<rect x="622" y="577" width="19" height="3" opacity="1" fill="#1D4ED8" stroke="none"/>
<rect x="622" y="574" width="19" height="3" opacity="1" fill="#2563EB" stroke="none"/>
<rect x="644" y="579" width="19" height="33" opacity="1" fill="#F87171" stroke="none"/>
<rect x="644" y="576" width="19" height="3" opacity="1" fill="#C45050" stroke="none"/>
<rect x="644" y="572" width="19" height="4" opacity="1" fill="#F87171" stroke="none"/>
<rect x="666" y="578" width="19" height="34" opacity="1" fill="#F472B6" stroke="none"/>
<rect x="666" y="575" width="19" height="3" opacity="1" fill="#C05A92" stroke="none"/>
<rect x="666" y="571" width="19" height="4" opacity="1" fill="#F472B6" stroke="none"/>
<rect x="688" y="566" width="19" height="46" opacity="1" fill="#4ADE80" stroke="none"/>
<rect x="688" y="563" width="19" height="3" opacity="1" fill="#3AAF60" stroke="none"/>
<rect x="688" y="555" width="19" height="8" opacity="1" fill="#4ADE80" stroke="none"/>
<text x="665" y="629" dy="0.5ex" text-anchor="middle" font-family="sans-serif" font-size="8.064516129032258" opacity="1" fill="#E6EDF3" font-weight="bold">
mdn-doc
</text>
<text x="665" y="644" dy="0.5ex" text-anchor="middle" font-family="sans-serif" font-size="8.064516129032258" opacity="1" fill="#7D8590">
4 KB
</text>
<rect x="732" y="593" width="19" height="19" opacity="1" fill="#2563EB" stroke="none"/>
<rect x="732" y="592" width="19" height="1" opacity="1" fill="#1D4ED8" stroke="none"/>
<rect x="732" y="591" width="19" height="1" opacity="1" fill="#2563EB" stroke="none"/>
<rect x="754" y="596" width="19" height="16" opacity="1" fill="#F87171" stroke="none"/>
<rect x="754" y="595" width="19" height="1" opacity="1" fill="#C45050" stroke="none"/>
<rect x="754" y="593" width="19" height="2" opacity="1" fill="#F87171" stroke="none"/>
<rect x="776" y="596" width="19" height="16" opacity="1" fill="#F472B6" stroke="none"/>
<rect x="776" y="594" width="19" height="2" opacity="1" fill="#C05A92" stroke="none"/>
<rect x="776" y="593" width="19" height="1" opacity="1" fill="#F472B6" stroke="none"/>
<rect x="798" y="584" width="19" height="28" opacity="1" fill="#4ADE80" stroke="none"/>
<rect x="798" y="583" width="19" height="1" opacity="1" fill="#3AAF60" stroke="none"/>
<rect x="798" y="581" width="19" height="2" opacity="1" fill="#4ADE80" stroke="none"/>
<text x="775" y="629" dy="0.5ex" text-anchor="middle" font-family="sans-serif" font-size="8.064516129032258" opacity="1" fill="#E6EDF3" font-weight="bold">
whatwg
</text>
<text x="775" y="644" dy="0.5ex" text-anchor="middle" font-family="sans-serif" font-size="8.064516129032258" opacity="1" fill="#7D8590">
7.9 MB
</text>
<rect x="38" y="668" width="12" height="12" opacity="1" fill="#2563EB" stroke="none"/>
<text x="56" y="674" dy="0.5ex" text-anchor="start" font-family="sans-serif" font-size="8.870967741935484" opacity="1" fill="#E6EDF3">
Google Brotli C 1.1.0
</text>
<rect x="296" y="668" width="12" height="12" opacity="1" fill="#F87171" stroke="none"/>
<text x="314" y="674" dy="0.5ex" text-anchor="start" font-family="sans-serif" font-size="8.870967741935484" opacity="1" fill="#E6EDF3">
burli
</text>
<rect x="466" y="668" width="12" height="12" opacity="1" fill="#F472B6" stroke="none"/>
<text x="484" y="674" dy="0.5ex" text-anchor="start" font-family="sans-serif" font-size="8.870967741935484" opacity="1" fill="#E6EDF3">
burli paranoid
</text>
<rect x="685" y="668" width="12" height="12" opacity="1" fill="#4ADE80" stroke="none"/>
<text x="703" y="674" dy="0.5ex" text-anchor="start" font-family="sans-serif" font-size="8.870967741935484" opacity="1" fill="#E6EDF3">
rust-brotli 8.0.4
</text>
<text x="215" y="710" dy="0.5ex" text-anchor="start" font-family="sans-serif" font-size="8.064516129032258" opacity="1" fill="#E6EDF3">
bright = compress + decompress
</text>
<text x="455" y="710" dy="0.5ex" text-anchor="start" font-family="sans-serif" font-size="8.064516129032258" opacity="1" fill="#7D8590">
dim = transfer @100 MB/s
</text>
</svg>
